<svg width="58" height="59" viewBox="0 0 58 59" fill="none" xmlns="http://www.w3.org/2000/svg">
<path d="M23.5629 16.246C29.5949 10.1808 44.6783 20.7922 23.5629 34.438C2.4475 20.7922 17.531 10.1845 23.5629 16.246Z" fill="#DE001F"/>
<path d="M47.1246 23.5616C47.1324 28.5748 45.5343 33.4587 42.5644 37.4974C42.7094 37.6061 42.8471 37.7222 42.9812 37.8527L56.9374 51.8102C57.6176 52.49 57.9999 53.4122 58.0002 54.3739C58.0006 55.3356 57.6189 56.258 56.9392 56.9383C56.2595 57.6185 55.3374 58.0009 54.3758 58.0012C53.4142 58.0016 52.4919 57.6199 51.8117 56.9401L37.8555 42.9825C37.7244 42.8529 37.6032 42.7135 37.493 42.5656H37.5003C33.2294 45.6993 28.0273 47.3024 22.7335 47.1161C17.4398 46.9297 12.3632 44.9649 8.3232 41.5386C4.28318 38.1124 1.51539 33.4246 0.466543 28.2319C-0.582302 23.0392 0.148986 17.6445 2.54238 12.9185C4.93578 8.19257 8.85165 4.41101 13.658 2.18419C18.4643 -0.0426337 23.8807 -0.584796 29.033 0.6452C34.1853 1.8752 38.7729 4.80559 42.0553 8.96344C45.3378 13.1213 47.1236 18.264 47.1246 23.5616ZM23.5623 43.5009C26.1805 43.5009 28.7731 42.9852 31.192 41.9832C33.6109 40.9811 35.8088 39.5124 37.6601 37.6608C39.5115 35.8093 40.98 33.6112 41.982 31.192C42.9839 28.7729 43.4996 26.1801 43.4996 23.5616C43.4996 20.9431 42.9839 18.3503 41.982 15.9311C40.98 13.512 39.5115 11.3139 37.6601 9.46233C35.8088 7.61079 33.6109 6.14206 31.192 5.14002C28.7731 4.13797 26.1805 3.62222 23.5623 3.62222C18.2746 3.62222 13.2035 5.72297 9.4645 9.46233C5.72553 13.2017 3.625 18.2733 3.625 23.5616C3.625 28.8498 5.72553 33.9215 9.4645 37.6608C13.2035 41.4002 18.2746 43.5009 23.5623 43.5009Z" fill="#DE001F"/>
</svg>
